<svg width="410" height="80" viewBox="0 0 410 80" fill="none" xmlns="http://www.w3.org/2000/svg">
<path d="M89.883 64V16.7677H99.8691V55.7666H120.118V64H89.883ZM136.648 64.6688C134.388 64.6688 132.374 64.2768 130.606 63.4926C128.838 62.6931 127.439 61.5169 126.408 59.964C125.394 58.3958 124.886 56.4431 124.886 54.1061C124.886 52.1381 125.248 50.4853 125.97 49.1477C126.693 47.81 127.677 46.7338 128.922 45.9189C130.168 45.104 131.582 44.489 133.166 44.0739C134.765 43.6588 136.441 43.3666 138.193 43.1975C140.254 42.9823 141.914 42.7824 143.175 42.5979C144.436 42.398 145.351 42.1059 145.919 41.7215C146.488 41.3371 146.773 40.7682 146.773 40.0149V39.8765C146.773 38.4158 146.311 37.2858 145.389 36.4863C144.482 35.6868 143.19 35.287 141.514 35.287C139.746 35.287 138.34 35.6791 137.294 36.4632C136.248 37.232 135.557 38.2006 135.218 39.3691L126.132 38.6311C126.593 36.4786 127.5 34.6182 128.853 33.0499C130.206 31.4663 131.951 30.2517 134.088 29.406C136.241 28.545 138.732 28.1145 141.561 28.1145C143.529 28.1145 145.412 28.3452 147.211 28.8064C149.025 29.2677 150.632 29.9826 152.031 30.9512C153.446 31.9199 154.56 33.1653 155.375 34.6874C156.19 36.1941 156.597 38.0007 156.597 40.1071V64H147.28V59.0877H147.003C146.434 60.1947 145.673 61.171 144.72 62.0166C143.767 62.8469 142.621 63.5003 141.284 63.9769C139.946 64.4382 138.401 64.6688 136.648 64.6688ZM139.462 57.8884C140.907 57.8884 142.183 57.604 143.29 57.0351C144.397 56.4508 145.266 55.6667 145.896 54.6827C146.527 53.6987 146.842 52.584 146.842 51.3386V47.5794C146.534 47.7793 146.112 47.9638 145.573 48.1329C145.051 48.2867 144.459 48.4327 143.798 48.5711C143.137 48.6941 142.475 48.8094 141.814 48.917C141.153 49.0093 140.554 49.0938 140.015 49.1707C138.862 49.3399 137.855 49.6089 136.994 49.9779C136.133 50.3469 135.464 50.8466 134.988 51.477C134.511 52.092 134.273 52.8607 134.273 53.7833C134.273 55.1209 134.757 56.1433 135.726 56.8506C136.71 57.5425 137.955 57.8884 139.462 57.8884ZM174.044 43.5204V64H164.22V28.5758H173.583V34.8258H173.998C174.782 32.7655 176.097 31.1357 177.942 29.9365C179.787 28.7219 182.024 28.1145 184.653 28.1145C187.113 28.1145 189.258 28.6527 191.088 29.7289C192.917 30.8052 194.339 32.3427 195.354 34.3414C196.369 36.3248 196.876 38.6926 196.876 41.4447V64H187.052V43.1975C187.067 41.0296 186.514 39.3384 185.391 38.1237C184.269 36.8937 182.724 36.2787 180.756 36.2787C179.433 36.2787 178.265 36.5632 177.25 37.132C176.251 37.7009 175.467 38.5312 174.898 39.6228C174.344 40.6991 174.06 41.9982 174.044 43.5204ZM220.763 64.6919C217.12 64.6919 213.983 63.9539 211.354 62.4779C208.74 60.9865 206.726 58.8801 205.311 56.1587C203.897 53.4219 203.19 50.1855 203.19 46.4493C203.19 42.8054 203.897 39.6074 205.311 36.8553C206.726 34.1031 208.717 31.9583 211.285 30.4208C213.868 28.8833 216.897 28.1145 220.371 28.1145C222.708 28.1145 224.884 28.4912 226.898 29.2446C228.928 29.9826 230.696 31.0973 232.203 32.5887C233.725 34.0801 234.909 35.9558 235.754 38.216C236.6 40.4607 237.023 43.0899 237.023 46.1034V48.8017H207.11V42.7132H227.774C227.774 41.2987 227.467 40.0456 226.852 38.954C226.237 37.8623 225.384 37.009 224.292 36.394C223.216 35.7636 221.963 35.4485 220.533 35.4485C219.041 35.4485 217.719 35.7944 216.566 36.4863C215.428 37.1628 214.537 38.0776 213.891 39.2307C213.245 40.3685 212.914 41.6369 212.899 43.0361V48.8248C212.899 50.5775 213.222 52.092 213.868 53.3681C214.529 54.6443 215.459 55.6283 216.658 56.3201C217.858 57.012 219.28 57.358 220.925 57.358C222.017 57.358 223.016 57.2042 223.923 56.8967C224.83 56.5892 225.607 56.128 226.252 55.5129C226.898 54.8979 227.39 54.1446 227.728 53.2528L236.815 53.8524C236.354 56.0357 235.408 57.9422 233.978 59.572C232.564 61.1864 230.734 62.4471 228.489 63.3542C226.26 64.246 223.685 64.6919 220.763 64.6919ZM285.293 33.3036H275.191C275.007 31.9967 274.63 30.8359 274.061 29.8212C273.492 28.791 272.762 27.9147 271.87 27.192C270.978 26.4694 269.948 25.9159 268.78 25.5315C267.627 25.1471 266.374 24.955 265.021 24.955C262.576 24.955 260.447 25.5623 258.632 26.7769C256.818 27.9762 255.411 29.7289 254.412 32.0352C253.412 34.3261 252.913 37.109 252.913 40.3839C252.913 43.751 253.412 46.58 254.412 48.8709C255.427 51.1618 256.841 52.8915 258.655 54.06C260.47 55.2285 262.568 55.8128 264.951 55.8128C266.289 55.8128 267.527 55.636 268.665 55.2823C269.818 54.9287 270.84 54.4136 271.732 53.7371C272.624 53.0452 273.362 52.2073 273.946 51.2233C274.546 50.2393 274.961 49.1169 275.191 47.8562L285.293 47.9023C285.031 50.0702 284.378 52.1612 283.332 54.1753C282.302 56.1741 280.911 57.9653 279.158 59.5489C277.421 61.1172 275.345 62.3626 272.931 63.2851C270.533 64.1922 267.819 64.6458 264.79 64.6458C260.577 64.6458 256.81 63.6925 253.489 61.786C250.184 59.8795 247.57 57.1196 245.648 53.5065C243.742 49.8934 242.788 45.5191 242.788 40.3839C242.788 35.2332 243.757 30.8513 245.694 27.2382C247.631 23.625 250.261 20.8729 253.582 18.9817C256.903 17.0752 260.639 16.122 264.79 16.122C267.527 16.122 270.064 16.5063 272.401 17.2751C274.753 18.0439 276.836 19.1662 278.651 20.6422C280.465 22.1029 281.941 23.8941 283.079 26.0158C284.232 28.1376 284.97 30.5669 285.293 33.3036ZM302.371 64.6688C300.11 64.6688 298.096 64.2768 296.328 63.4926C294.56 62.6931 293.161 61.5169 292.131 59.964C291.116 58.3958 290.609 56.4431 290.609 54.1061C290.609 52.1381 290.97 50.4853 291.693 49.1477C292.415 47.81 293.399 46.7338 294.645 45.9189C295.89 45.104 297.304 44.489 298.888 44.0739C300.487 43.6588 302.163 43.3666 303.916 43.1975C305.976 42.9823 307.637 42.7824 308.897 42.5979C310.158 42.398 311.073 42.1059 311.642 41.7215C312.211 41.3371 312.495 40.7682 312.495 40.0149V39.8765C312.495 38.4158 312.034 37.2858 311.111 36.4863C310.204 35.6868 308.913 35.287 307.237 35.287C305.469 35.287 304.062 35.6791 303.016 36.4632C301.971 37.232 301.279 38.2006 300.941 39.3691L291.854 38.6311C292.315 36.4786 293.222 34.6182 294.575 33.0499C295.928 31.4663 297.673 30.2517 299.811 29.406C301.963 28.545 304.454 28.1145 307.283 28.1145C309.251 28.1145 311.134 28.3452 312.933 28.8064C314.748 29.2677 316.354 29.9826 317.753 30.9512C319.168 31.9199 320.283 33.1653 321.097 34.6874C321.912 36.1941 322.32 38.0007 322.32 40.1071V64H313.002V59.0877H312.726C312.157 60.1947 311.396 61.171 310.443 62.0166C309.489 62.8469 308.344 63.5003 307.006 63.9769C305.669 64.4382 304.123 64.6688 302.371 64.6688ZM305.184 57.8884C306.629 57.8884 307.906 57.604 309.013 57.0351C310.12 56.4508 310.988 55.6667 311.619 54.6827C312.249 53.6987 312.564 52.584 312.564 51.3386V47.5794C312.257 47.7793 311.834 47.9638 311.296 48.1329C310.773 48.2867 310.181 48.4327 309.52 48.5711C308.859 48.6941 308.198 48.8094 307.537 48.917C306.875 49.0093 306.276 49.0938 305.738 49.1707C304.585 49.3399 303.578 49.6089 302.717 49.9779C301.856 50.3469 301.187 50.8466 300.71 51.477C300.233 52.092 299.995 52.8607 299.995 53.7833C299.995 55.1209 300.479 56.1433 301.448 56.8506C302.432 57.5425 303.677 57.8884 305.184 57.8884ZM329.942 64V28.5758H339.467V34.7566H339.836C340.482 32.5579 341.566 30.8974 343.088 29.775C344.61 28.6373 346.363 28.0684 348.346 28.0684C348.838 28.0684 349.368 28.0992 349.937 28.1607C350.506 28.2222 351.006 28.3067 351.436 28.4144V37.132C350.975 36.9937 350.337 36.8707 349.522 36.763C348.707 36.6554 347.962 36.6016 347.285 36.6016C345.84 36.6016 344.548 36.9168 343.411 37.5472C342.288 38.1622 341.396 39.0232 340.735 40.1302C340.09 41.2372 339.767 42.5133 339.767 43.9586V64H329.942ZM371.011 64.6919C367.367 64.6919 364.23 63.9539 361.601 62.4779C358.987 60.9865 356.973 58.8801 355.559 56.1587C354.144 53.4219 353.437 50.1855 353.437 46.4493C353.437 42.8054 354.144 39.6074 355.559 36.8553C356.973 34.1031 358.964 31.9583 361.532 30.4208C364.115 28.8833 367.144 28.1145 370.619 28.1145C372.956 28.1145 375.131 28.4912 377.145 29.2446C379.175 29.9826 380.943 31.0973 382.45 32.5887C383.972 34.0801 385.156 35.9558 386.001 38.216C386.847 40.4607 387.27 43.0899 387.27 46.1034V48.8017H357.358V42.7132H378.022C378.022 41.2987 377.714 40.0456 377.099 38.954C376.484 37.8623 375.631 37.009 374.539 36.394C373.463 35.7636 372.21 35.4485 370.78 35.4485C369.289 35.4485 367.966 35.7944 366.813 36.4863C365.676 37.1628 364.784 38.0776 364.138 39.2307C363.492 40.3685 363.162 41.6369 363.146 43.0361V48.8248C363.146 50.5775 363.469 52.092 364.115 53.3681C364.776 54.6443 365.706 55.6283 366.906 56.3201C368.105 57.012 369.527 57.358 371.172 57.358C372.264 57.358 373.263 57.2042 374.17 56.8967C375.077 56.5892 375.854 56.128 376.5 55.5129C377.145 54.8979 377.637 54.1446 377.976 53.2528L387.062 53.8524C386.601 56.0357 385.656 57.9422 384.226 59.572C382.811 61.1864 380.981 62.4471 378.737 63.3542C376.507 64.246 373.932 64.6919 371.011 64.6919ZM399.424 64.5996C397.902 64.5996 396.595 64.0615 395.503 62.9852C394.427 61.8936 393.889 60.5867 393.889 59.0646C393.889 57.5578 394.427 56.2663 395.503 55.1901C396.595 54.1138 397.902 53.5757 399.424 53.5757C400.9 53.5757 402.191 54.1138 403.298 55.1901C404.405 56.2663 404.959 57.5578 404.959 59.0646C404.959 60.0794 404.698 61.0095 404.175 61.8552C403.667 62.6854 402.999 63.3542 402.168 63.8616C401.338 64.3536 400.423 64.5996 399.424 64.5996Z" fill="url(#paint0_linear_19_4)"/>
<mask id="mask0_19_4" style="mask-type:luminance" maskUnits="userSpaceOnUse" x="3" y="3" width="73" height="73">
<path d="M67.6912 6.60437H11.5565C10.2429 6.60437 8.98305 7.12621 8.05417 8.05509C7.12529 8.98397 6.60345 10.2438 6.60345 11.5574V67.6922C6.60345 69.0058 7.12529 70.2656 8.05417 71.1945C8.98305 72.1234 10.2429 72.6452 11.5565 72.6452H67.6912C69.0049 72.6452 70.2647 72.1234 71.1936 71.1945C72.1225 70.2656 72.6443 69.0058 72.6443 67.6922V11.5574C72.6443 10.2438 72.1225 8.98397 71.1936 8.05509C70.2647 7.12621 69.0049 6.60437 67.6912 6.60437Z" fill="white" stroke="white" stroke-width="6.60408" stroke-linejoin="round"/>
<path d="M54.4829 19.8126L61.087 59.4371M26.4155 19.8126L19.8114 59.4371M39.6237 19.8126V26.4166M39.6237 36.3228V42.9269M39.6237 52.833V59.4371" stroke="black" stroke-width="6.60408" stroke-linecap="round" stroke-linejoin="round"/>
</mask>
<g mask="url(#mask0_19_4)">
<path d="M0.000595093 0H79.2496V79.249H0.000595093V0Z" fill="url(#paint1_linear_19_4)"/>
</g>
<defs>
<linearGradient id="paint0_linear_19_4" x1="446.081" y1="103.694" x2="137.17" y2="-92.9723" gradientUnits="userSpaceOnUse">
<stop stop-color="#FF7C32"/>
<stop offset="1" stop-color="#CB3068"/>
</linearGradient>
<linearGradient id="paint1_linear_19_4" x1="95.2311" y1="-22.3997" x2="-38.618" y2="-14.3902" gradientUnits="userSpaceOnUse">
<stop stop-color="#E7702E"/>
<stop offset="1" stop-color="#CB3068"/>
</linearGradient>
</defs>
</svg>
